<svg xmlns="http://www.w3.org/2000/svg" width="43.597" height="36" viewBox="0 0 43.597 36">
  <g id="Group_2" data-name="Group 2" transform="translate(-332 -243)">
    <path id="Icon_awesome-moon" data-name="Icon awesome-moon" d="M19.913,36A17.965,17.965,0,0,0,33.9,29.335a.844.844,0,0,0-.813-1.361,14.1,14.1,0,0,1-9.616-26.11A.844.844,0,0,0,23.2.3,18,18,0,1,0,19.913,36Z" transform="translate(330.087 243)" fill="#fff"/>
    <path id="Icon_material-wb-sunny" data-name="Icon material-wb-sunny" d="M7.235,5.1,5.443,3.314l-1.4,1.4L5.821,6.5ZM4.487,10.733H1.5v1.991H4.487ZM13.449.825H11.457V3.762h1.991V.825Zm7.418,3.893-1.4-1.4L17.681,5.1l1.4,1.4Zm-3.2,13.642,1.782,1.792,1.4-1.4-1.792-1.782L17.671,18.36Zm2.748-7.627v1.991h2.987V10.733ZM12.453,5.754a5.974,5.974,0,1,0,5.974,5.974A5.979,5.979,0,0,0,12.453,5.754Zm-1,16.878h1.991V19.694H11.457ZM4.039,18.738l1.4,1.4L7.225,18.35l-1.4-1.4Z" transform="translate(352.191 243.793)" fill="#fff"/>
  </g>
</svg>
