<svg xmlns="http://www.w3.org/2000/svg" width="45" height="45" viewBox="0 0 45 45">
  <g id="light-logo" transform="translate(-205 -17)">
    <g id="Rectangle_1" data-name="Rectangle 1" transform="translate(210 22)" fill="rgba(255,255,255,0)" stroke="#000" stroke-width="1.5">
      <rect width="40" height="40" rx="8" stroke="none"/>
      <rect x="0.75" y="0.75" width="38.5" height="38.5" rx="7.25" fill="none"/>
    </g>
    <g id="Rectangle_2" data-name="Rectangle 2" transform="translate(205 17)" fill="rgba(0,0,0,0)" stroke="#000" stroke-width="1.5">
      <rect width="40" height="40" rx="8" stroke="none"/>
      <rect x="0.75" y="0.75" width="38.5" height="38.5" rx="7.25" fill="none"/>
    </g>
    <g id="Intersection_1" data-name="Intersection 1" transform="translate(205 17)">
      <path d="M 32.00040054321289 39.24959945678711 L 8.000100135803223 39.24959945678711 C 7.326639175415039 39.24959945678711 6.663309574127197 39.15802001953125 6.023024082183838 38.97695922851562 C 5.842004299163818 38.33674240112305 5.750400066375732 37.67333602905273 5.750400066375732 36.99990081787109 L 5.750400066375732 12.99960041046143 C 5.750400066375732 9.00238037109375 9.00238037109375 5.750400066375732 12.99960041046143 5.750400066375732 L 36.99990081787109 5.750400066375732 C 37.67333602905273 5.750400066375732 38.33674240112305 5.842004299163818 38.97695922851562 6.023024082183838 C 39.15802001953125 6.663309574127197 39.24959945678711 7.326639175415039 39.24959945678711 8.000100135803223 L 39.24959945678711 32.00040054321289 C 39.24959945678711 35.99761962890625 35.99761962890625 39.24959945678711 32.00040054321289 39.24959945678711 Z" stroke="none"/>
      <path d="M 32.00040054321289 38.49959945678711 C 35.58406829833984 38.49959945678711 38.49959945678711 35.58406829833984 38.49959945678711 32.00040054321289 L 38.49959945678711 8.000100135803223 C 38.49959945678711 7.540327548980713 38.45207214355469 7.085964202880859 38.35785293579102 6.642133712768555 C 37.91403579711914 6.547920703887939 37.45969009399414 6.500400066375732 36.99990081787109 6.500400066375732 L 12.99960041046143 6.500400066375732 C 9.415929794311523 6.500400066375732 6.500400066375732 9.415929794311523 6.500400066375732 12.99960041046143 L 6.500400066375732 36.99990081787109 C 6.500400066375732 37.45969009399414 6.547920703887939 37.91403579711914 6.642133712768555 38.35785293579102 C 7.085964202880859 38.45207214355469 7.540327548980713 38.49959945678711 8.000100135803223 38.49959945678711 L 32.00040054321289 38.49959945678711 M 32.00040054321289 39.99959945678711 L 8.000100135803223 39.99959945678711 C 7.098899841308594 39.99959945678711 6.232460021972656 39.85055923461914 5.424139976501465 39.57583999633789 C 5.149419784545898 38.76752853393555 5.000400066375732 37.90110015869141 5.000400066375732 36.99990081787109 L 5.000400066375732 12.99960041046143 C 5.000400066375732 8.581500053405762 8.581500053405762 5.000400066375732 12.99960041046143 5.000400066375732 L 36.99990081787109 5.000400066375732 C 37.90110015869141 5.000400066375732 38.76752853393555 5.149419784545898 39.57583999633789 5.424139976501465 C 39.85055923461914 6.232460021972656 39.99959945678711 7.098899841308594 39.99959945678711 8.000100135803223 L 39.99959945678711 32.00040054321289 C 39.99959945678711 36.41849899291992 36.41849899291992 39.99959945678711 32.00040054321289 39.99959945678711 Z" stroke="none"/>
    </g>
    <path id="Path_1" data-name="Path 1" d="M8.284-1.558H8.227A3.424,3.424,0,0,1,7.058-.266,3.334,3.334,0,0,1,5.187.228a3.426,3.426,0,0,1-2.869-1.32A6.106,6.106,0,0,1,1.292-4.9a6.106,6.106,0,0,1,1.026-3.81,3.426,3.426,0,0,1,2.869-1.32,3.334,3.334,0,0,1,1.871.494A3.424,3.424,0,0,1,8.227-8.246h.057V-14.06H9.367V0H8.284ZM5.548-.741A3.534,3.534,0,0,0,6.593-.893a2.829,2.829,0,0,0,.874-.437,2.064,2.064,0,0,0,.6-.7,1.979,1.979,0,0,0,.218-.931V-6.84a1.979,1.979,0,0,0-.218-.931,2.064,2.064,0,0,0-.6-.7,2.829,2.829,0,0,0-.874-.437,3.534,3.534,0,0,0-1.045-.152,2.868,2.868,0,0,0-2.289.931,3.755,3.755,0,0,0-.807,2.546v1.368a3.755,3.755,0,0,0,.807,2.546A2.868,2.868,0,0,0,5.548-.741ZM17.309.228a6.1,6.1,0,0,1-2.575-.5,5.6,5.6,0,0,1-1.891-1.415l.741-.646A4.743,4.743,0,0,0,15.2-1.092a5.082,5.082,0,0,0,2.128.409,3.978,3.978,0,0,0,2.1-.494,1.658,1.658,0,0,0,.808-1.52,1.55,1.55,0,0,0-.162-.75,1.363,1.363,0,0,0-.447-.484,2.279,2.279,0,0,0-.665-.294,5.936,5.936,0,0,0-.836-.161L16.606-4.6a10.778,10.778,0,0,1-1.149-.219,3.661,3.661,0,0,1-1.045-.427,2.3,2.3,0,0,1-.76-.76,2.275,2.275,0,0,1-.295-1.216,2.618,2.618,0,0,1,.285-1.254,2.4,2.4,0,0,1,.8-.874,3.793,3.793,0,0,1,1.207-.513,6.217,6.217,0,0,1,1.492-.171,5.359,5.359,0,0,1,2.308.446,5.431,5.431,0,0,1,1.587,1.111l-.722.684a5.75,5.75,0,0,0-.485-.465,3.082,3.082,0,0,0-.665-.427,4.418,4.418,0,0,0-.9-.314,5.059,5.059,0,0,0-1.178-.123,3.529,3.529,0,0,0-1.948.456A1.528,1.528,0,0,0,14.44-7.3a1.55,1.55,0,0,0,.161.75,1.363,1.363,0,0,0,.446.485,2.279,2.279,0,0,0,.665.294,6.018,6.018,0,0,0,.817.162l1.539.228q.57.095,1.149.237a3.661,3.661,0,0,1,1.045.428,2.238,2.238,0,0,1,.75.75A2.284,2.284,0,0,1,21.3-2.755,2.7,2.7,0,0,1,21-1.463a2.735,2.735,0,0,1-.817.931,3.678,3.678,0,0,1-1.264.57A6.492,6.492,0,0,1,17.309.228Z" transform="translate(216 47)" fill="#fff"/>
  </g>
</svg>
