<svg xmlns="http://www.w3.org/2000/svg" width="45" height="45" viewBox="0 0 45 45">
  <g id="dark-logo" transform="translate(-205 -80)">
    <g id="Rectangle_8" data-name="Rectangle 8" transform="translate(210 85)" fill="none" stroke="#fff" stroke-width="1.5">
      <rect width="40" height="40" rx="8" stroke="none"/>
      <rect x="0.75" y="0.75" width="38.5" height="38.5" rx="7.25" fill="none"/>
    </g>
    <g id="Rectangle_9" data-name="Rectangle 9" transform="translate(205 80)" fill="rgba(255,255,255,0)" stroke="#fff" stroke-width="1.5">
      <rect width="40" height="40" rx="8" stroke="none"/>
      <rect x="0.75" y="0.75" width="38.5" height="38.5" rx="7.25" fill="none"/>
    </g>
    <path id="Intersection_2" data-name="Intersection 2" d="M8,40a7.991,7.991,0,0,1-2.576-.424A7.991,7.991,0,0,1,5,37V13a8,8,0,0,1,8-8H37a7.991,7.991,0,0,1,2.576.424A7.991,7.991,0,0,1,40,8V32a8,8,0,0,1-8,8Z" transform="translate(205 80)" fill="#fcfcfc"/>
    <path id="Path_2" data-name="Path 2" d="M8.284-1.558H8.227A3.424,3.424,0,0,1,7.058-.266,3.334,3.334,0,0,1,5.187.228a3.426,3.426,0,0,1-2.869-1.32A6.106,6.106,0,0,1,1.292-4.9a6.106,6.106,0,0,1,1.026-3.81,3.426,3.426,0,0,1,2.869-1.32,3.334,3.334,0,0,1,1.871.494A3.424,3.424,0,0,1,8.227-8.246h.057V-14.06H9.367V0H8.284ZM5.548-.741A3.534,3.534,0,0,0,6.593-.893a2.829,2.829,0,0,0,.874-.437,2.064,2.064,0,0,0,.6-.7,1.979,1.979,0,0,0,.218-.931V-6.84a1.979,1.979,0,0,0-.218-.931,2.064,2.064,0,0,0-.6-.7,2.829,2.829,0,0,0-.874-.437,3.534,3.534,0,0,0-1.045-.152,2.868,2.868,0,0,0-2.289.931,3.755,3.755,0,0,0-.807,2.546v1.368a3.755,3.755,0,0,0,.807,2.546A2.868,2.868,0,0,0,5.548-.741ZM17.309.228a6.1,6.1,0,0,1-2.575-.5,5.6,5.6,0,0,1-1.891-1.415l.741-.646A4.743,4.743,0,0,0,15.2-1.092a5.082,5.082,0,0,0,2.128.409,3.978,3.978,0,0,0,2.1-.494,1.658,1.658,0,0,0,.808-1.52,1.55,1.55,0,0,0-.162-.75,1.363,1.363,0,0,0-.447-.484,2.279,2.279,0,0,0-.665-.294,5.936,5.936,0,0,0-.836-.161L16.606-4.6a10.778,10.778,0,0,1-1.149-.219,3.661,3.661,0,0,1-1.045-.427,2.3,2.3,0,0,1-.76-.76,2.275,2.275,0,0,1-.295-1.216,2.618,2.618,0,0,1,.285-1.254,2.4,2.4,0,0,1,.8-.874,3.793,3.793,0,0,1,1.207-.513,6.217,6.217,0,0,1,1.492-.171,5.359,5.359,0,0,1,2.308.446,5.431,5.431,0,0,1,1.587,1.111l-.722.684a5.75,5.75,0,0,0-.485-.465,3.082,3.082,0,0,0-.665-.427,4.418,4.418,0,0,0-.9-.314,5.059,5.059,0,0,0-1.178-.123,3.529,3.529,0,0,0-1.948.456A1.528,1.528,0,0,0,14.44-7.3a1.55,1.55,0,0,0,.161.75,1.363,1.363,0,0,0,.446.485,2.279,2.279,0,0,0,.665.294,6.018,6.018,0,0,0,.817.162l1.539.228q.57.095,1.149.237a3.661,3.661,0,0,1,1.045.428,2.238,2.238,0,0,1,.75.75A2.284,2.284,0,0,1,21.3-2.755,2.7,2.7,0,0,1,21-1.463a2.735,2.735,0,0,1-.817.931,3.678,3.678,0,0,1-1.264.57A6.492,6.492,0,0,1,17.309.228Z" transform="translate(216 110)"/>
  </g>
</svg>
