<?xml version="1.0" standalone="no"?>
<!DOCTYPE svg PUBLIC "-//W3C//DTD SVG 20010904//EN"
 "http://www.w3.org/TR/2001/REC-SVG-20010904/DTD/svg10.dtd">
<svg version="1.0" xmlns="http://www.w3.org/2000/svg"
 width="700.000000pt" height="700.000000pt" viewBox="0 0 700.000000 700.000000"
 preserveAspectRatio="xMidYMid meet">
<metadata>
Created by potrace 1.11, written by Peter Selinger 2001-2013
</metadata>
<g transform="translate(0.000000,700.000000) scale(0.100000,-0.100000)"
fill="#000000" stroke="none">
<path d="M1034 6984 c-254 -43 -481 -161 -669 -349 -189 -189 -308 -419 -350
-675 -22 -141 -23 -3996 0 -4137 52 -318 224 -603 484 -799 73 -55 212 -131
314 -172 15 -7 32 -24 39 -39 150 -372 419 -630 783 -752 191 -64 83 -61 2255
-61 2165 0 2058 -3 2249 60 444 145 765 519 846 984 13 78 15 335 15 2065 0
2167 3 2058 -60 2254 -100 312 -328 578 -623 726 -51 26 -107 52 -125 58 -25
9 -37 22 -50 55 -129 340 -430 627 -772 737 -185 60 -14 55 -2230 57 -1679 2
-2039 0 -2106 -12z m2136 -3559 l0 -1095 -85 0 -84 0 -3 128 -3 127 -26 -45
c-36 -61 -133 -152 -197 -184 -28 -14 -77 -33 -109 -41 -73 -19 -232 -19 -303
0 -146 39 -265 135 -336 271 -91 174 -119 311 -111 559 6 203 24 280 98 433
76 158 182 250 338 296 63 18 241 21 311 5 113 -26 239 -116 306 -219 l29 -45
3 453 2 452 85 0 85 0 0 -1095z m1430 445 c47 -12 121 -39 165 -60 81 -41 210
-137 210 -157 0 -6 -24 -32 -53 -58 l-52 -47 -56 51 c-117 107 -274 156 -477
149 -190 -7 -295 -54 -349 -157 -57 -108 -31 -240 60 -308 57 -43 108 -57 342
-93 336 -51 450 -89 540 -179 70 -70 93 -138 88 -266 -3 -87 -8 -109 -35 -168
-56 -119 -164 -202 -323 -247 -97 -28 -316 -38 -427 -20 -177 28 -335 105
-461 225 l-64 61 56 48 56 48 63 -57 c75 -68 170 -126 253 -154 230 -76 519
-44 642 73 58 54 77 100 77 191 0 96 -21 144 -84 192 -58 44 -113 59 -351 94
-113 17 -243 39 -289 50 -153 35 -259 111 -309 217 -24 50 -27 69 -27 162 0
97 2 110 31 171 61 127 174 206 354 244 103 21 318 19 420 -5z"/>
<path d="M2425 3726 c-151 -48 -261 -165 -312 -331 -15 -51 -18 -96 -18 -305
0 -240 1 -246 27 -318 51 -140 129 -230 246 -285 64 -30 73 -32 192 -32 105 0
136 4 190 23 120 42 206 125 236 228 12 44 14 113 12 411 -3 352 -3 359 -27
410 -26 58 -97 130 -158 161 -95 49 -292 68 -388 38z"/>
</g>
</svg>
